<svg width="94" height="48" viewBox="0 0 94 48" fill="none" xmlns="http://www.w3.org/2000/svg">
<rect x="2.48975" y="8.85791" width="89.1501" height="37.2275" rx="14.6951" fill="#2E9D29" stroke="#2E9D29" stroke-width="3.42885"/>
<rect x="2" y="2" width="89.1501" height="37.2275" rx="14.6951" fill="#BBCDB5" stroke="#2E9D29" stroke-width="3.42885"/>
<path d="M35.5502 22.7C35.5502 23.3515 35.3787 23.9115 35.0359 24.3801C34.7044 24.8488 34.2529 25.2088 33.6815 25.4602C33.11 25.7117 32.4814 25.8374 31.7956 25.8374H25.9837V13.665H32.2585C32.83 13.665 33.3214 13.8193 33.7329 14.1279C34.1558 14.425 34.4758 14.8136 34.693 15.2937C34.9216 15.7623 35.0359 16.2538 35.0359 16.7681C35.0359 17.3624 34.8816 17.9225 34.573 18.4482C34.2758 18.9626 33.8472 19.3454 33.2871 19.5969C33.9843 19.8026 34.533 20.1798 34.933 20.7284C35.3444 21.2656 35.5502 21.9228 35.5502 22.7ZM33.5786 22.34C33.5786 21.9971 33.5043 21.6885 33.3557 21.4142C33.2186 21.1284 33.0243 20.8999 32.7728 20.7284C32.5328 20.5455 32.2471 20.4541 31.9156 20.4541H27.9038V24.1744H31.7956C32.1385 24.1744 32.4414 24.0944 32.7042 23.9344C32.9785 23.7629 33.19 23.5401 33.3386 23.2658C33.4986 22.98 33.5786 22.6714 33.5786 22.34ZM27.9038 15.328V18.9111H31.4356C31.7556 18.9111 32.0413 18.8368 32.2928 18.6882C32.5442 18.5282 32.7442 18.3168 32.8928 18.0539C33.0414 17.7796 33.1157 17.471 33.1157 17.1281C33.1157 16.7738 33.0471 16.4652 32.91 16.2023C32.7728 15.928 32.5842 15.7166 32.3442 15.568C32.1156 15.408 31.847 15.328 31.5384 15.328H27.9038ZM41.3416 26.0088C40.633 26.0088 39.9986 25.8888 39.4386 25.6488C38.8785 25.3974 38.3928 25.0545 37.9813 24.6202C37.5813 24.1858 37.2727 23.6944 37.0555 23.1458C36.8384 22.5857 36.7298 21.9914 36.7298 21.3628C36.7298 20.7341 36.8384 20.1398 37.0555 19.5798C37.2727 19.0197 37.5813 18.5282 37.9813 18.1053C38.3928 17.671 38.8785 17.3339 39.4386 17.0938C40.0101 16.8424 40.6444 16.7167 41.3416 16.7167C42.0388 16.7167 42.6674 16.8424 43.2275 17.0938C43.7989 17.3339 44.2847 17.671 44.6847 18.1053C45.0962 18.5282 45.4105 19.0197 45.6277 19.5798C45.8448 20.1398 45.9534 20.7341 45.9534 21.3628C45.9534 21.9914 45.8448 22.5857 45.6277 23.1458C45.4105 23.6944 45.0962 24.1858 44.6847 24.6202C44.2847 25.0545 43.7989 25.3974 43.2275 25.6488C42.6674 25.8888 42.0388 26.0088 41.3416 26.0088ZM38.6671 21.3799C38.6671 21.9514 38.7871 22.4657 39.0271 22.9229C39.2671 23.3801 39.5872 23.7401 39.9872 24.003C40.3872 24.2658 40.8387 24.3973 41.3416 24.3973C41.8331 24.3973 42.2788 24.2658 42.6788 24.003C43.0903 23.7287 43.416 23.3629 43.6561 22.9057C43.8961 22.4371 44.0161 21.9228 44.0161 21.3628C44.0161 20.7913 43.8961 20.277 43.6561 19.8198C43.416 19.3626 43.0903 19.0026 42.6788 18.7397C42.2788 18.4654 41.8331 18.3282 41.3416 18.3282C40.8387 18.3282 40.3872 18.4654 39.9872 18.7397C39.5872 19.014 39.2671 19.3797 39.0271 19.8369C38.7871 20.2827 38.6671 20.797 38.6671 21.3799ZM51.6549 26.0088C50.9463 26.0088 50.312 25.8888 49.7519 25.6488C49.1919 25.3974 48.7061 25.0545 48.2947 24.6202C47.8946 24.1858 47.586 23.6944 47.3689 23.1458C47.1517 22.5857 47.0431 21.9914 47.0431 21.3628C47.0431 20.7341 47.1517 20.1398 47.3689 19.5798C47.586 19.0197 47.8946 18.5282 48.2947 18.1053C48.7061 17.671 49.1919 17.3339 49.7519 17.0938C50.3234 16.8424 50.9577 16.7167 51.6549 16.7167C52.3521 16.7167 52.9807 16.8424 53.5408 17.0938C54.1123 17.3339 54.598 17.671 54.9981 18.1053C55.4095 18.5282 55.7238 19.0197 55.941 19.5798C56.1582 20.1398 56.2667 20.7341 56.2667 21.3628C56.2667 21.9914 56.1582 22.5857 55.941 23.1458C55.7238 23.6944 55.4095 24.1858 54.9981 24.6202C54.598 25.0545 54.1123 25.3974 53.5408 25.6488C52.9807 25.8888 52.3521 26.0088 51.6549 26.0088ZM48.9804 21.3799C48.9804 21.9514 49.1004 22.4657 49.3405 22.9229C49.5805 23.3801 49.9005 23.7401 50.3005 24.003C50.7006 24.2658 51.152 24.3973 51.6549 24.3973C52.1464 24.3973 52.5921 24.2658 52.9922 24.003C53.4036 23.7287 53.7294 23.3629 53.9694 22.9057C54.2094 22.4371 54.3294 21.9228 54.3294 21.3628C54.3294 20.7913 54.2094 20.277 53.9694 19.8198C53.7294 19.3626 53.4036 19.0026 52.9922 18.7397C52.5921 18.4654 52.1464 18.3282 51.6549 18.3282C51.152 18.3282 50.7006 18.4654 50.3005 18.7397C49.9005 19.014 49.5805 19.3797 49.3405 19.8369C49.1004 20.2827 48.9804 20.797 48.9804 21.3799ZM64.1799 25.8374L61.2996 21.7056L59.8252 23.1115V25.8374H57.9394V13.3221H59.8252V21.2085L63.9741 16.8881H65.9972L62.5169 20.6427L66.1858 25.8374H64.1799Z" fill="black"/>
</svg>
