<svg width="401" height="98" viewBox="0 0 401 98" fill="none" xmlns="http://www.w3.org/2000/svg">
<rect x="6" y="18" width="391" height="76" rx="30" fill="#2E9D29" stroke="#2E9D29" stroke-width="7"/>
<rect x="4" y="4" width="391" height="76" rx="30" fill="#BBCDB5" stroke="#2E9D29" stroke-width="7"/>
<g filter="url(#filter0_b_14_48)">
<path d="M110.282 46.85C110.282 48.75 109.782 50.3833 108.782 51.75C107.815 53.1167 106.499 54.1667 104.832 54.9C103.165 55.6333 101.332 56 99.3318 56H82.3818V20.5H100.682C102.349 20.5 103.782 20.95 104.982 21.85C106.215 22.7167 107.149 23.85 107.782 25.25C108.449 26.6167 108.782 28.05 108.782 29.55C108.782 31.2833 108.332 32.9167 107.432 34.45C106.565 35.95 105.315 37.0667 103.682 37.8C105.715 38.4 107.315 39.5 108.482 41.1C109.682 42.6667 110.282 44.5833 110.282 46.85ZM104.532 45.8C104.532 44.8 104.315 43.9 103.882 43.1C103.482 42.2667 102.915 41.6 102.182 41.1C101.482 40.5667 100.649 40.3 99.6818 40.3H87.9818V51.15H99.3318C100.332 51.15 101.215 50.9167 101.982 50.45C102.782 49.95 103.399 49.3 103.832 48.5C104.299 47.6667 104.532 46.7667 104.532 45.8ZM87.9818 25.35V35.8H98.2818C99.2152 35.8 100.049 35.5833 100.782 35.15C101.515 34.6833 102.099 34.0667 102.532 33.3C102.965 32.5 103.182 31.6 103.182 30.6C103.182 29.5667 102.982 28.6667 102.582 27.9C102.182 27.1 101.632 26.4833 100.932 26.05C100.265 25.5833 99.4818 25.35 98.5818 25.35H87.9818ZM127.172 56.5C125.105 56.5 123.255 56.15 121.622 55.45C119.989 54.7167 118.572 53.7167 117.372 52.45C116.205 51.1833 115.305 49.75 114.672 48.15C114.039 46.5167 113.722 44.7833 113.722 42.95C113.722 41.1167 114.039 39.3833 114.672 37.75C115.305 36.1167 116.205 34.6833 117.372 33.45C118.572 32.1833 119.989 31.2 121.622 30.5C123.289 29.7667 125.139 29.4 127.172 29.4C129.205 29.4 131.039 29.7667 132.672 30.5C134.339 31.2 135.755 32.1833 136.922 33.45C138.122 34.6833 139.039 36.1167 139.672 37.75C140.305 39.3833 140.622 41.1167 140.622 42.95C140.622 44.7833 140.305 46.5167 139.672 48.15C139.039 49.75 138.122 51.1833 136.922 52.45C135.755 53.7167 134.339 54.7167 132.672 55.45C131.039 56.15 129.205 56.5 127.172 56.5ZM119.372 43C119.372 44.6667 119.722 46.1667 120.422 47.5C121.122 48.8333 122.055 49.8833 123.222 50.65C124.389 51.4167 125.705 51.8 127.172 51.8C128.605 51.8 129.905 51.4167 131.072 50.65C132.272 49.85 133.222 48.7833 133.922 47.45C134.622 46.0833 134.972 44.5833 134.972 42.95C134.972 41.2833 134.622 39.7833 133.922 38.45C133.222 37.1167 132.272 36.0667 131.072 35.3C129.905 34.5 128.605 34.1 127.172 34.1C125.705 34.1 124.389 34.5 123.222 35.3C122.055 36.1 121.122 37.1667 120.422 38.5C119.722 39.8 119.372 41.3 119.372 43ZM157.25 56.5C155.184 56.5 153.334 56.15 151.7 55.45C150.067 54.7167 148.65 53.7167 147.45 52.45C146.284 51.1833 145.384 49.75 144.75 48.15C144.117 46.5167 143.8 44.7833 143.8 42.95C143.8 41.1167 144.117 39.3833 144.75 37.75C145.384 36.1167 146.284 34.6833 147.45 33.45C148.65 32.1833 150.067 31.2 151.7 30.5C153.367 29.7667 155.217 29.4 157.25 29.4C159.284 29.4 161.117 29.7667 162.75 30.5C164.417 31.2 165.834 32.1833 167 33.45C168.2 34.6833 169.117 36.1167 169.75 37.75C170.384 39.3833 170.7 41.1167 170.7 42.95C170.7 44.7833 170.384 46.5167 169.75 48.15C169.117 49.75 168.2 51.1833 167 52.45C165.834 53.7167 164.417 54.7167 162.75 55.45C161.117 56.15 159.284 56.5 157.25 56.5ZM149.45 43C149.45 44.6667 149.8 46.1667 150.5 47.5C151.2 48.8333 152.134 49.8833 153.3 50.65C154.467 51.4167 155.784 51.8 157.25 51.8C158.684 51.8 159.984 51.4167 161.15 50.65C162.35 49.85 163.3 48.7833 164 47.45C164.7 46.0833 165.05 44.5833 165.05 42.95C165.05 41.2833 164.7 39.7833 164 38.45C163.3 37.1167 162.35 36.0667 161.15 35.3C159.984 34.5 158.684 34.1 157.25 34.1C155.784 34.1 154.467 34.5 153.3 35.3C152.134 36.1 151.2 37.1667 150.5 38.5C149.8 39.8 149.45 41.3 149.45 43ZM193.778 56L185.378 43.95L181.078 48.05V56H175.578V19.5H181.078V42.5L193.178 29.9H199.078L188.928 40.85L199.628 56H193.778ZM221.624 30.9V56H216.024V20.5H220.624L240.724 46.15V20.55H246.374V56H241.474L221.624 30.9ZM264.965 56.5C262.898 56.5 261.048 56.15 259.415 55.45C257.782 54.7167 256.365 53.7167 255.165 52.45C253.998 51.1833 253.098 49.75 252.465 48.15C251.832 46.5167 251.515 44.7833 251.515 42.95C251.515 41.1167 251.832 39.3833 252.465 37.75C253.098 36.1167 253.998 34.6833 255.165 33.45C256.365 32.1833 257.782 31.2 259.415 30.5C261.082 29.7667 262.932 29.4 264.965 29.4C266.998 29.4 268.832 29.7667 270.465 30.5C272.132 31.2 273.548 32.1833 274.715 33.45C275.915 34.6833 276.832 36.1167 277.465 37.75C278.098 39.3833 278.415 41.1167 278.415 42.95C278.415 44.7833 278.098 46.5167 277.465 48.15C276.832 49.75 275.915 51.1833 274.715 52.45C273.548 53.7167 272.132 54.7167 270.465 55.45C268.832 56.15 266.998 56.5 264.965 56.5ZM257.165 43C257.165 44.6667 257.515 46.1667 258.215 47.5C258.915 48.8333 259.848 49.8833 261.015 50.65C262.182 51.4167 263.498 51.8 264.965 51.8C266.398 51.8 267.698 51.4167 268.865 50.65C270.065 49.85 271.015 48.7833 271.715 47.45C272.415 46.0833 272.765 44.5833 272.765 42.95C272.765 41.2833 272.415 39.7833 271.715 38.45C271.015 37.1167 270.065 36.0667 268.865 35.3C267.698 34.5 266.398 34.1 264.965 34.1C263.498 34.1 262.182 34.5 261.015 35.3C259.848 36.1 258.915 37.1667 258.215 38.5C257.515 39.8 257.165 41.3 257.165 43ZM315.014 29.85H320.264L309.264 56H304.564L299.864 44.2L295.164 56H290.464L279.414 29.85H284.664L293.064 50.65L296.764 41L292.264 29.9H296.914L299.864 38.05L302.764 29.9H307.414L302.964 41L306.664 50.65L315.014 29.85Z" fill="black"/>
</g>
<defs>
<filter id="filter0_b_14_48" x="78.3818" y="15.5" width="245.882" height="45" filterUnits="userSpaceOnUse" color-interpolation-filters="sRGB">
<feFlood flood-opacity="0" result="BackgroundImageFix"/>
<feGaussianBlur in="BackgroundImageFix" stdDeviation="2"/>
<feComposite in2="SourceAlpha" operator="in" result="effect1_backgroundBlur_14_48"/>
<feBlend mode="normal" in="SourceGraphic" in2="effect1_backgroundBlur_14_48" result="shape"/>
</filter>
</defs>
</svg>
