<svg width="93" height="48" viewBox="0 0 93 48" fill="none" xmlns="http://www.w3.org/2000/svg">
<rect x="2" y="9" width="89.1501" height="37.2275" rx="14.6951" fill="#2E9D29" stroke="#2E9D29" stroke-width="3.42885"/>
<rect x="2" y="2" width="89.1501" height="37.2275" rx="14.6951" fill="#BBCDB5" stroke="#2E9D29" stroke-width="3.42885"/>
<path d="M23.7853 25V12.8276H25.7054V23.3027H32.2374V25H23.7853ZM33.5572 25V16.0336H35.4431V25H33.5572ZM33.5572 14.5592V12.4847H35.4431V14.5592H33.5572ZM40.8982 25.1714C40.1438 25.1714 39.4295 25.0514 38.7552 24.8114C38.0808 24.56 37.5036 24.1885 37.0236 23.697L37.7265 22.4284C38.2408 22.8855 38.7552 23.217 39.2695 23.4227C39.7952 23.6285 40.3153 23.7313 40.8296 23.7313C41.3554 23.7313 41.784 23.6342 42.1154 23.4399C42.4469 23.2341 42.6126 22.937 42.6126 22.5484C42.6126 22.2626 42.5269 22.0512 42.3554 21.914C42.184 21.7769 41.9326 21.6569 41.6011 21.554C41.2811 21.4511 40.8925 21.3368 40.4353 21.2111C39.7952 21.0168 39.2581 20.8168 38.8237 20.6111C38.3894 20.3939 38.0637 20.131 37.8465 19.8224C37.6294 19.5138 37.5208 19.1195 37.5208 18.6395C37.5208 18.0566 37.6694 17.5594 37.9665 17.1479C38.2637 16.7365 38.6751 16.4222 39.2009 16.205C39.7381 15.9878 40.3553 15.8793 41.0525 15.8793C41.704 15.8793 42.304 15.9821 42.8526 16.1879C43.4127 16.3822 43.9041 16.6908 44.327 17.1136L43.5213 18.3652C43.1212 17.9994 42.7098 17.7308 42.2869 17.5594C41.8754 17.388 41.4297 17.3022 40.9496 17.3022C40.6753 17.3022 40.4124 17.3365 40.161 17.4051C39.9095 17.4622 39.6981 17.5765 39.5266 17.748C39.3666 17.908 39.2866 18.1366 39.2866 18.4338C39.2866 18.6738 39.3552 18.8681 39.4924 19.0167C39.6295 19.1652 39.8352 19.291 40.1096 19.3938C40.3839 19.4967 40.721 19.611 41.1211 19.7367C41.8183 19.9424 42.4126 20.1482 42.9041 20.3539C43.3955 20.5482 43.7727 20.8054 44.0356 21.1254C44.3099 21.434 44.447 21.8626 44.447 22.4112C44.447 23.2799 44.1213 23.9599 43.4698 24.4514C42.8298 24.9314 41.9726 25.1714 40.8982 25.1714ZM51.103 24.5371C50.943 24.6171 50.743 24.7028 50.503 24.7943C50.263 24.8857 49.9887 24.9657 49.6801 25.0343C49.3829 25.1029 49.0743 25.1372 48.7543 25.1372C48.3657 25.1372 48.0056 25.0686 47.6742 24.9314C47.3427 24.7943 47.0741 24.5771 46.8684 24.2799C46.6741 23.9713 46.577 23.577 46.577 23.097V17.4908H45.394V16.0336H46.577V13.0847H48.4628V16.0336H50.4173V17.4908H48.4628V22.4969C48.4857 22.8055 48.5828 23.0341 48.7543 23.1827C48.9371 23.3313 49.16 23.4056 49.4229 23.4056C49.6858 23.4056 49.9372 23.3599 50.1772 23.2684C50.4173 23.177 50.5944 23.1027 50.7087 23.0456L51.103 24.5371ZM56.3552 25.1714C55.658 25.1714 55.0237 25.0514 54.4522 24.8114C53.8921 24.56 53.4064 24.2228 52.9949 23.7999C52.5835 23.3656 52.2634 22.8741 52.0349 22.3255C51.8177 21.7655 51.7091 21.1711 51.7091 20.5425C51.7091 19.6967 51.9034 18.9252 52.292 18.228C52.6806 17.5194 53.2235 16.9536 53.9207 16.5307C54.6179 16.0964 55.4351 15.8793 56.3723 15.8793C57.3096 15.8793 58.1153 16.0964 58.7897 16.5307C59.4755 16.9536 60.0069 17.5137 60.3841 18.2109C60.7613 18.9081 60.9499 19.6567 60.9499 20.4568C60.9499 20.5939 60.9441 20.7254 60.9327 20.8511C60.9213 20.9654 60.9099 21.0625 60.8984 21.1425H53.715C53.7493 21.6683 53.8921 22.1312 54.1436 22.5312C54.4065 22.9198 54.7379 23.2284 55.138 23.457C55.538 23.6742 55.9666 23.7828 56.4238 23.7828C56.9267 23.7828 57.401 23.657 57.8468 23.4056C58.3039 23.1541 58.6125 22.8227 58.7725 22.4112L60.3841 22.8741C60.1898 23.3084 59.8926 23.7028 59.4926 24.0571C59.104 24.4 58.6411 24.6743 58.1039 24.88C57.5667 25.0743 56.9838 25.1714 56.3552 25.1714ZM53.6636 19.891H59.0811C59.0469 19.3767 58.8983 18.9252 58.6354 18.5366C58.3839 18.1366 58.0582 17.828 57.6582 17.6108C57.2696 17.3822 56.8352 17.2679 56.3552 17.2679C55.8866 17.2679 55.4523 17.3822 55.0522 17.6108C54.6636 17.828 54.3436 18.1366 54.0922 18.5366C53.8407 18.9252 53.6978 19.3767 53.6636 19.891ZM70.5288 25H68.6429V19.9767C68.6429 19.1424 68.5058 18.5309 68.2315 18.1423C67.9686 17.7537 67.5743 17.5594 67.0485 17.5594C66.6828 17.5594 66.317 17.6508 65.9513 17.8337C65.597 18.0166 65.277 18.268 64.9912 18.588C64.7055 18.8966 64.4997 19.2567 64.374 19.6681V25H62.4882V16.0336H64.2026V17.8337C64.4312 17.4337 64.7283 17.0908 65.0941 16.805C65.4713 16.5079 65.8941 16.2793 66.3628 16.1193C66.8314 15.9593 67.3286 15.8793 67.8543 15.8793C68.3915 15.8793 68.8315 15.9764 69.1744 16.1707C69.5287 16.365 69.803 16.6336 69.9973 16.9765C70.2031 17.3079 70.3402 17.6965 70.4088 18.1423C70.4888 18.5766 70.5288 19.0395 70.5288 19.531V25Z" fill="black"/>
</svg>
