<svg width="42" height="36" viewBox="0 0 42 36" fill="none" xmlns="http://www.w3.org/2000/svg">
<path d="M30.6676 14.555C30.6676 9.89751 26.5067 6.10901 21.3909 6.10901C16.275 6.10901 12.1135 9.89751 12.1135 14.557C12.1153 14.7895 12.2442 20.3615 19.6747 30.1795C19.8277 30.4487 20.0595 30.6793 20.3475 30.8488C20.6355 31.0183 20.9699 31.1209 21.3179 31.1465C22.3913 31.1465 23.1228 30.1335 23.1939 30.0305C30.6717 20.2065 30.6717 14.7765 30.6676 14.555ZM21.3909 17.9565C20.5736 17.9565 19.7748 17.7488 19.0953 17.3596C18.4158 16.9705 17.8863 16.4173 17.5736 15.7702C17.2609 15.123 17.1791 14.4109 17.3385 13.7239C17.498 13.0369 17.8916 12.4059 18.4695 11.9106C19.0474 11.4153 19.7836 11.0781 20.5852 10.9415C21.3867 10.8049 22.2174 10.8751 22.9724 11.1432C23.7274 11.4114 24.3726 11.8654 24.8266 12.4478C25.2805 13.0303 25.5227 13.715 25.5226 14.4155C25.5214 15.3544 25.0856 16.2545 24.311 16.9184C23.5364 17.5822 22.4862 17.9556 21.3909 17.9565Z" fill="#D22F27"/>
<path d="M30.6676 14.555C30.6676 9.89751 26.5066 6.10901 21.3908 6.10901C20.6291 6.1118 19.8712 6.20005 19.1362 6.37151C24.0333 6.59651 27.9446 10.283 27.9446 14.7965C27.9481 15.018 27.9481 20.448 20.4703 30.2715C20.3697 30.4124 20.2553 30.5457 20.1285 30.67C20.2787 30.8145 20.4617 30.9313 20.6663 31.0133C20.8709 31.0953 21.0928 31.1408 21.3185 31.147C22.3912 31.147 23.1227 30.1335 23.1939 30.0305C30.6716 20.2065 30.6716 14.7765 30.6676 14.555Z" fill="#EA5A47"/>
<path d="M21.3179 31.147C20.9698 31.1213 20.6354 31.0187 20.3474 30.8491C20.0594 30.6795 19.8276 30.4488 19.6747 30.1795C12.2442 20.3615 12.1153 14.79 12.1135 14.557C12.1135 9.89701 16.275 6.10901 21.3909 6.10901C26.5067 6.10901 30.6676 9.89751 30.6676 14.555C30.6717 14.777 30.6717 20.207 23.1939 30.03C23.1228 30.1335 22.3907 31.147 21.3179 31.147Z" stroke="black" stroke-width="2" stroke-linecap="round" stroke-linejoin="round"/>
<path d="M21.3908 17.9565C20.5736 17.9565 19.7748 17.7488 19.0953 17.3597C18.4158 16.9705 17.8863 16.4173 17.5736 15.7702C17.2608 15.123 17.1791 14.4109 17.3385 13.7239C17.498 13.0369 17.8916 12.4059 18.4695 11.9106C19.0474 11.4154 19.7836 11.0781 20.5851 10.9415C21.3867 10.8049 22.2174 10.8751 22.9724 11.1433C23.7274 11.4114 24.3726 11.8654 24.8266 12.4478C25.2805 13.0303 25.5227 13.7151 25.5226 14.4155C25.5214 15.3544 25.0856 16.2546 24.311 16.9184C23.5364 17.5823 22.4862 17.9556 21.3908 17.9565Z" stroke="black" stroke-width="2" stroke-linecap="round" stroke-linejoin="round"/>
</svg>
