<svg width="50" height="50" viewBox="0 0 50 50" fill="none" xmlns="http://www.w3.org/2000/svg">
<path d="M25 0C27.309 0 29.5226 0.295139 31.6406 0.885417C33.7587 1.47569 35.7552 2.30903 37.6302 3.38542C39.5052 4.46181 41.1892 5.76389 42.6823 7.29167C44.1753 8.81944 45.4774 10.5122 46.5885 12.3698C47.6996 14.2274 48.5417 16.2153 49.1146 18.3333C49.6875 20.4514 49.9826 22.6736 50 25C50 27.309 49.7049 29.5226 49.1146 31.6406C48.5243 33.7587 47.691 35.7552 46.6146 37.6302C45.5382 39.5052 44.2361 41.1892 42.7083 42.6823C41.1806 44.1753 39.4878 45.4774 37.6302 46.5885C35.7726 47.6996 33.7847 48.5417 31.6667 49.1146C29.5486 49.6875 27.3264 49.9826 25 50C22.691 50 20.4774 49.7049 18.3594 49.1146C16.2413 48.5243 14.2448 47.691 12.3698 46.6146C10.4948 45.5382 8.81076 44.2361 7.31771 42.7083C5.82465 41.1806 4.52257 39.4878 3.41146 37.6302C2.30035 35.7726 1.45833 33.7847 0.885417 31.6667C0.3125 29.5486 0.0173611 27.3264 0 25C0 22.691 0.295139 20.4774 0.885417 18.3594C1.47569 16.2413 2.30903 14.2448 3.38542 12.3698C4.46181 10.4948 5.76389 8.81076 7.29167 7.31771C8.81944 5.82465 10.5122 4.52257 12.3698 3.41146C14.2274 2.30035 16.2153 1.45833 18.3333 0.885417C20.4514 0.3125 22.6736 0.0173611 25 0ZM25 46.6667C26.9965 46.6667 28.9149 46.4062 30.7552 45.8854C32.5955 45.3646 34.3142 44.6354 35.9115 43.6979C37.5087 42.7604 38.9757 41.6319 40.3125 40.3125C41.6493 38.9931 42.7778 37.5347 43.6979 35.9375C44.6181 34.3403 45.3472 32.6128 45.8854 30.7552C46.4236 28.8976 46.684 26.9792 46.6667 25C46.6667 23.0035 46.4062 21.0851 45.8854 19.2448C45.3646 17.4045 44.6354 15.6858 43.6979 14.0885C42.7604 12.4913 41.6319 11.0243 40.3125 9.6875C38.9931 8.35069 37.5347 7.22222 35.9375 6.30208C34.3403 5.38194 32.6128 4.65278 30.7552 4.11458C28.8976 3.57639 26.9792 3.31597 25 3.33333C23.0035 3.33333 21.0851 3.59375 19.2448 4.11458C17.4045 4.63542 15.6858 5.36458 14.0885 6.30208C12.4913 7.23958 11.0243 8.36806 9.6875 9.6875C8.35069 11.0069 7.22222 12.4653 6.30208 14.0625C5.38194 15.6597 4.65278 17.3872 4.11458 19.2448C3.57639 21.1024 3.31597 23.0208 3.33333 25C3.33333 26.9965 3.59375 28.9149 4.11458 30.7552C4.63542 32.5955 5.36458 34.3142 6.30208 35.9115C7.23958 37.5087 8.36806 38.9757 9.6875 40.3125C11.0069 41.6493 12.4653 42.7778 14.0625 43.6979C15.6597 44.6181 17.3872 45.3472 19.2448 45.8854C21.1024 46.4236 23.0208 46.684 25 46.6667ZM23.8281 16.1979L26.1719 13.8021L37.474 25L26.1719 36.1979L23.8281 33.8021L31.0677 26.6667H13.3333V23.3333H31.0677L23.8281 16.1979Z" fill="#2E9D29"/>
</svg>
